<svg xmlns="http://www.w3.org/2000/svg" viewBox="0 0 800 600" preserveAspectRatio="xMidYMid slice">
  <rect width="800" height="600" fill="#eaf3f6"/>
  <circle cx="650" cy="110" r="60" fill="#f6c665" opacity="0.85"/>
  <path d="M0 430 Q 250 370 500 420 T 800 400 V 600 H 0 Z" fill="#bcd6a2"/>
  <rect y="480" width="800" height="120" fill="#a4c586"/>
  <!-- modern single-story house -->
  <g>
    <rect x="120" y="300" width="560" height="190" fill="#3d4a5c"/>
    <rect x="120" y="280" width="580" height="26" fill="#2c3644"/>
    <rect x="420" y="330" width="200" height="160" fill="#e9e2d2"/>
    <!-- big window -->
    <rect x="150" y="330" width="230" height="130" fill="#bfe0e8" stroke="#2c3644" stroke-width="8"/>
    <path d="M265 330 V 460" stroke="#2c3644" stroke-width="6"/>
    <!-- door -->
    <rect x="470" y="360" width="80" height="130" fill="#7a5a3c"/>
    <circle cx="536" cy="428" r="6" fill="#e9d9ae"/>
    <!-- slat wall accent -->
    <g stroke="#c8a06a" stroke-width="8">
      <path d="M585 340 V 480"/><path d="M605 340 V 480"/><path d="M625 340 V 480"/><path d="M645 340 V 480"/>
    </g>
  </g>
  <ellipse cx="400" cy="520" rx="330" ry="24" fill="#93b877"/>
  <g>
    <rect x="712" y="380" width="16" height="110" rx="6" fill="#8a6743"/>
    <circle cx="720" cy="356" r="52" fill="#6f9e57"/>
  </g>
  <g>
    <rect x="66" y="410" width="14" height="90" rx="6" fill="#8a6743"/>
    <circle cx="73" cy="390" r="44" fill="#7fae66"/>
  </g>
</svg>
